HIERARCHY
ROOT Hips
{
	OFFSET 0.000000 88.474243 0.000000
	CHANNELS 6 Xposition Yposition Zposition Zrotation Yrotation Xrotation 
	JOINT Hips_Spine
	{
		OFFSET 0.000000 0.000000 0.000000
		CHANNELS 3 Zrotation Yrotation Xrotation
		JOINT Spine
		{
			OFFSET 0.005100 8.711998 -0.691000
			CHANNELS 3 Zrotation Yrotation Xrotation
			JOINT Spine1
			{
				OFFSET -0.009200 8.660301 -1.275000
				CHANNELS 3 Zrotation Yrotation Xrotation
				JOINT Spine2
				{
					OFFSET 0.006300 9.852501 -1.857000
					CHANNELS 3 Zrotation Yrotation Xrotation
					JOINT Spine2_Neck
					{
						OFFSET 0.000000 0.000000 0.000000
						CHANNELS 3 Zrotation Yrotation Xrotation
						JOINT Neck
						{
							OFFSET 0.016300 11.420799 -0.263300
							CHANNELS 3 Zrotation Yrotation Xrotation
							End Site #name: Head
							{
								OFFSET -0.019200 9.262405 2.362500
							}
						}
					}
					JOINT Spine2_LeftShoulder
					{
						OFFSET 0.000000 0.000000 0.000000
						CHANNELS 3 Zrotation Yrotation Xrotation
						JOINT LeftShoulder
						{
							OFFSET 5.616900 6.732201 -0.345700
							CHANNELS 3 Zrotation Yrotation Xrotation
							JOINT LeftArm
							{
								OFFSET 10.664888 -0.183372 -2.440700
								CHANNELS 3 Zrotation Yrotation Xrotation
								JOINT LeftForeArm
								{
									OFFSET 27.459126 0.000000 0.000000
									CHANNELS 3 Zrotation Yrotation Xrotation
									End Site #name: LeftHand
									{
										OFFSET 21.306858 0.000000 0.000000
									}
								}
							}
						}
					}
					JOINT Spine2_RightShoulder
					{
						OFFSET 0.000000 0.000000 0.000000
						CHANNELS 3 Zrotation Yrotation Xrotation
						JOINT RightShoulder
						{
							OFFSET -5.580300 6.737503 -0.344400
							CHANNELS 3 Zrotation Yrotation Xrotation
							JOINT RightArm
							{
								OFFSET -10.679335 -0.188484 -2.383900
								CHANNELS 3 Zrotation Yrotation Xrotation
								JOINT RightForeArm
								{
									OFFSET -27.503529 0.000000 0.000000
									CHANNELS 3 Zrotation Yrotation Xrotation
									End Site #name: RightHand
									{
										OFFSET -21.306808 0.000000 0.000000
									}
								}
							}
						}
					}
				}
			}
		}
	}
	JOINT Hips_LeftUpLeg
	{
		OFFSET 0.000000 0.000000 0.000000
		CHANNELS 3 Zrotation Yrotation Xrotation
		JOINT LeftUpLeg
		{
			OFFSET 6.857700 -6.739601 0.312100
			CHANNELS 3 Zrotation Yrotation Xrotation
			JOINT LeftLeg
			{
				OFFSET -0.367590 -34.731552 -4.572400
				CHANNELS 3 Zrotation Yrotation Xrotation
				End Site #name: LeftFoot
				{
					OFFSET 0.367590 -34.656704 -6.067400
				}
			}
		}
	}
	JOINT Hips_RightUpLeg
	{
		OFFSET 0.000000 0.000000 0.000000
		CHANNELS 3 Zrotation Yrotation Xrotation
		JOINT RightUpLeg
		{
			OFFSET -6.876100 -6.733299 0.301000
			CHANNELS 3 Zrotation Yrotation Xrotation
			JOINT RightLeg
			{
				OFFSET 0.347353 -34.795158 -4.515900
				CHANNELS 3 Zrotation Yrotation Xrotation
				End Site #name: RightFoot
				{
					OFFSET -0.347353 -34.589367 -6.070300
				}
			}
		}
	}
}
MOTION
Frames: 12
Frame Time: 0.041667
-7.531264 6.147582 12.982512 0.417598 9.926482 6.262089 0.000000 -0.000000 0.000000 -1.004887 1.711105 1.390734 -3.731585 2.857498 -3.152709 0.000000 0.000000 0.000000 -3.622365 2.934629 -4.613182 2.334660 -0.100188 -4.641917 -3.553022 3.104385 -4.257056 -1.223684 1.913470 0.490898 -61.214021 9.504769 -3.060179 -178.833319 -74.090431 178.653768 -3.401315 3.273065 -3.575062 14.976803 -10.568733 -0.941239 60.402367 32.312241 36.022740 -178.889600 84.762388 -178.751325 0.000000 0.000000 0.000000 10.936369 10.864244 -23.954151 -1.657078 -7.376549 23.628539 0.000000 0.000000 0.000000 -0.142479 -12.088340 -17.413871 -0.966573 -7.423989 23.910094 
-7.197174 6.237641 12.989816 0.566285 10.140970 6.133460 0.000000 -0.000000 0.000000 -0.998730 1.786121 1.331299 -3.804034 3.038622 -3.251976 0.000000 0.000000 0.000000 -3.733230 3.102203 -4.678304 2.581154 -0.350346 -5.086852 -3.606500 3.235727 -4.304167 -0.808014 2.360247 0.419450 -61.482780 8.153605 -2.483276 -178.837826 -74.188463 178.666789 -3.515339 3.396182 -3.670923 13.550512 -11.351125 -1.222170 63.451475 36.470341 31.578235 -179.224007 85.358724 -179.019424 0.000000 0.000000 0.000000 10.426590 10.705419 -23.725144 -1.520991 -7.528220 23.374755 0.000000 0.000000 0.000000 -0.583241 -12.200332 -16.959815 -0.976445 -7.376197 23.417806 
-6.844962 6.322971 12.960665 0.679930 10.253061 6.047619 0.000000 -0.000000 0.000000 -0.971583 1.800215 1.184482 -3.733012 3.056827 -3.265996 0.000000 0.000000 0.000000 -3.679688 3.127492 -4.611645 2.751498 -0.470181 -5.364748 -3.511114 3.223810 -4.223662 -0.739678 2.752869 0.358468 -61.594723 6.868446 -1.902254 -178.823762 -75.478738 178.667382 -3.479887 3.409403 -3.649835 12.477056 -12.201682 -1.308274 66.285127 40.136812 27.137168 -179.075452 87.986331 -178.827747 0.000000 0.000000 0.000000 9.922909 10.590994 -23.548157 -1.432690 -7.648729 23.158483 0.000000 0.000000 0.000000 -1.008372 -12.267582 -16.589314 -1.002670 -7.281707 22.905038 
-6.473375 6.408066 12.894979 0.754197 10.222179 6.002898 0.000000 -0.000000 0.000000 -0.914284 1.774503 0.985785 -3.544893 2.963262 -3.306638 0.000000 0.000000 0.000000 -3.492831 3.059787 -4.531099 2.806059 -0.455355 -5.449355 -3.300166 3.126509 -4.155890 -0.976445 2.936886 0.321187 -61.419142 5.733302 -1.307723 -178.753397 -77.824269 178.614744 -3.329794 3.345138 -3.662027 11.996563 -12.662433 -1.062232 68.021791 41.840504 23.919691 -0.438902 85.781549 -0.198323 0.000000 0.000000 0.000000 9.437419 10.510008 -23.398776 -1.400288 -7.707871 22.940672 0.000000 0.000000 0.000000 -1.407024 -12.301986 -16.314141 -1.057038 -7.121923 22.357766 
-6.082892 6.495232 12.794583 0.780235 10.017310 5.995671 0.000000 -0.000000 0.000000 -0.819404 1.717829 0.793123 -3.267606 2.787045 -3.425112 0.000000 0.000000 0.000000 -3.207629 2.918529 -4.526959 2.728418 -0.367006 -5.248815 -3.005241 2.966052 -4.174413 -1.538214 2.894345 0.309611 -61.051885 4.625874 -0.558863 -178.616744 -80.747235 178.487887 -3.094938 3.213788 -3.763604 12.147620 -12.859468 -0.552630 67.665670 41.137662 20.820471 -0.272662 77.231829 -0.086139 0.000000 0.000000 0.000000 9.002892 10.466001 -23.238991 -1.449318 -7.707739 22.719877 0.000000 0.000000 0.000000 -1.767812 -12.313110 -16.123066 -1.149235 -6.900363 21.764045 
-5.674239 6.585720 12.657422 0.760569 9.635229 6.001245 0.000000 -0.000000 0.000000 -0.701198 1.632983 0.619450 -2.928265 2.542902 -3.636461 0.000000 0.000000 0.000000 -2.852901 2.698754 -4.597861 2.523032 -0.242220 -4.778064 -2.654729 2.746111 -4.284804 -2.370420 2.731626 0.315314 -60.464328 3.652423 0.174686 -178.310434 -83.696857 178.182977 -2.785497 3.007775 -3.946487 12.941973 -12.775785 0.254673 66.396221 38.536020 18.491460 -0.167168 69.358193 0.080963 0.000000 0.000000 0.000000 8.606432 10.479554 -23.049167 -1.563710 -7.646424 22.434617 0.000000 0.000000 0.000000 -2.103404 -12.311836 -15.975342 -1.273642 -6.663413 21.085221 
-5.245783 6.680312 12.479733 0.710640 9.113091 6.007840 0.000000 -0.000000 0.000000 -0.580479 1.510427 0.484096 -2.550936 2.248531 -3.962731 0.000000 0.000000 0.000000 -2.458848 2.423518 -4.686219 2.236289 -0.095617 -4.088350 -2.277856 2.451841 -4.429993 -3.405300 2.474987 0.344737 -59.693145 2.803477 0.609578 -177.353044 -86.460580 177.223880 -2.437074 2.723434 -4.182755 14.052216 -12.566486 1.230032 64.842739 34.966873 16.773671 -0.105004 61.780196 0.086285 0.000000 0.000000 0.000000 8.259854 10.521731 -22.853333 -1.731304 -7.519678 22.151615 0.000000 0.000000 0.000000 -2.424954 -12.300862 -15.870417 -1.408766 -6.425326 20.368653 
-4.796640 6.780250 12.258116 0.644354 8.496411 5.994058 0.000000 -0.000000 0.000000 -0.452692 1.364521 0.371522 -2.168584 1.897919 -4.269870 0.000000 0.000000 0.000000 -2.073441 2.115917 -4.763040 1.976639 0.097543 -3.332211 -1.902576 2.112343 -4.570106 -4.952791 2.210431 0.388375 -58.728087 1.830602 0.601075 -170.326640 -89.146567 170.188874 -2.064218 2.384305 -4.395431 14.993860 -12.167875 2.217295 63.504578 31.431169 15.108779 -0.080421 57.005267 0.082122 0.000000 0.000000 0.000000 7.927812 10.573568 -22.657250 -1.943706 -7.357410 21.905504 0.000000 0.000000 0.000000 -2.741324 -12.236402 -15.817363 -1.568170 -6.186651 19.694061 
-4.326249 6.886340 11.989361 0.581584 7.854566 5.945631 0.000000 -0.000000 0.000000 -0.347532 1.220009 0.275039 -1.911327 1.569804 -4.450863 0.000000 0.000000 0.000000 -1.738928 1.803554 -4.817570 1.771575 0.329112 -2.621008 -1.573598 1.793357 -4.679298 -6.349655 1.938296 0.452515 -57.984922 1.031539 0.553375 -5.449855 -88.671459 5.298456 -1.713401 2.053741 -4.583768 15.371140 -11.526202 3.106594 62.783514 28.892100 14.935274 -0.169580 54.168066 0.009555 0.000000 0.000000 0.000000 7.568640 10.615462 -22.477028 -2.183850 -7.146082 21.714611 0.000000 0.000000 0.000000 -3.074174 -12.127711 -15.801272 -1.737034 -5.943557 19.068607 
-3.842260 6.997925 11.679510 0.544773 7.086413 5.863530 0.000000 -0.000000 0.000000 -0.283700 1.101699 0.240364 -1.737954 1.288095 -4.554526 0.000000 0.000000 0.000000 -1.483949 1.566770 -4.885849 1.641938 0.584429 -2.090446 -1.343363 1.532984 -4.753787 -7.478813 1.635111 0.534658 -57.768787 0.660794 0.917833 -2.211447 -86.688565 2.054539 -1.444094 1.783197 -4.722629 15.256770 -11.060706 3.653490 62.897121 26.790601 16.074144 -0.189694 53.097955 -0.024199 0.000000 0.000000 0.000000 7.183790 10.652554 -22.305464 -2.332020 -6.618378 21.535049 0.000000 0.000000 0.000000 -3.431112 -11.991852 -15.803069 -1.906205 -5.717330 18.494983 
-3.350635 7.114441 11.334450 0.536407 6.438722 5.722712 0.000000 -0.000000 -0.000000 -0.273248 1.019221 0.256470 -1.650723 1.097405 -4.610043 0.000000 0.000000 0.000000 -1.344793 1.384276 -4.923462 1.588364 0.790139 -1.822640 -1.227804 1.359841 -4.784729 -8.252384 1.276441 0.610225 -57.944186 0.435706 1.243071 -1.386965 -84.803375 1.214909 -1.277694 1.582498 -4.779244 15.157563 -10.702238 3.960856 63.830459 24.955608 17.823779 -0.231355 52.914421 -0.075694 0.000000 0.000000 0.000000 6.787106 10.681179 -22.100263 -2.037458 -5.503121 21.210676 0.000000 0.000000 0.000000 -3.808467 -11.879622 -15.778989 -2.014488 -5.359769 17.967791 
-2.859150 7.234244 10.956568 0.551163 5.999679 5.528076 0.000000 -0.000000 -0.000000 -0.345377 0.972514 0.233651 -1.650540 0.995979 -4.591582 0.000000 0.000000 0.000000 -1.326180 1.273514 -4.910751 1.640332 0.876949 -1.858199 -1.218526 1.253288 -4.733043 -8.783427 1.003197 0.663416 -58.258094 0.230430 1.360871 -0.905967 -81.627714 0.725298 -1.225892 1.453814 -4.791850 15.089931 -10.260182 3.954409 65.133710 23.328216 19.942859 -0.296588 52.600712 -0.168038 0.000000 0.000000 0.000000 6.369604 10.684976 -21.979071 -1.710272 -4.407745 20.983458 0.000000 0.000000 0.000000 -4.161929 -11.786879 -15.705137 -2.177408 -5.100663 17.411816 
